PathFileType	4	(X/Y/Z)	C:/Users/opensim2020/Desktop/walking_exp_matlab/subject06_walking22_straight_01.trc																																																																																																																																		
DataRate	CameraRate	NumFrames	NumMarkers	Units	OrigDataRate	OrigDataStartFrame	OrigNumFrames																																																																																																																														
100	100	8	44	mm	100	742	141																																																																																																																														
Frame#	Time	LFHD			RFHD			LBHD			RBHD			C7			T10			CLAV			STRN			RBAK			LSHO			LUPA			LELB			LFRM			LWRA			LWRB			LFIN			RSHO			RUPA			RELB			RFRM			RWRA			RWRB			RFIN			LASI			RASI			LPSI			RPSI			LTHI			LKNE			LTIB			LANK			LHEE			LTOE			RTHI			RKNE			RTIB			RANK			RHEE			RTOE			*39			*40			*41			*42			*43		
		X1	Y1	Z1	X2	Y2	Z2	X3	Y3	Z3	X4	Y4	Z4	X5	Y5	Z5	X6	Y6	Z6	X7	Y7	Z7	X8	Y8	Z8	X9	Y9	Z9	X10	Y10	Z10	X11	Y11	Z11	X12	Y12	Z12	X13	Y13	Z13	X14	Y14	Z14	X15	Y15	Z15	X16	Y16	Z16	X17	Y17	Z17	X18	Y18	Z18	X19	Y19	Z19	X20	Y20	Z20	X21	Y21	Z21	X22	Y22	Z22	X23	Y23	Z23	X24	Y24	Z24	X25	Y25	Z25	X26	Y26	Z26	X27	Y27	Z27	X28	Y28	Z28	X29	Y29	Z29	X30	Y30	Z30	X31	Y31	Z31	X32	Y32	Z32	X33	Y33	Z33	X34	Y34	Z34	X35	Y35	Z35	X36	Y36	Z36	X37	Y37	Z37	X38	Y38	Z38	X39	Y39	Z39	X40	Y40	Z40	X41	Y41	Z41	X42	Y42	Z42	X43	Y43	Z43	X44	Y44	Z44
																																																																																																																																					
1	0	-962.00311	1652.16187	1360.06067	-947.14258	1647.13013	1491.20044	-1095.70435	1602.50562	1376.70996	-1079.54333	1601.8197	1504.99597	-1096.20813	1450.93237	1432.26086	-1157.5343	1126.19958	1444.35876	-990.30786	1366.51514	1430.45935	-965.44983	1187.79199	1425.62769	-1178.66895	1288.16443	1516.85522	-1042.26746	1401.91809	1268.9823	-1057.69788	1199.33716	1196.6792	-1068.58557	1086.59167	1183.83557	-1038.77502	941.50507	1153.22131	-958.60992	834.34595	1175.46375	-1025.99878	822.54065	1154.25525	-976.52368	748.21857	1138.92163	-1026.17566	1401.80505	1591.46155	-1077.60925	1210.99817	1686.9425	-1079.3877	1089.0675	1702.63794	-1070.97937	969.20209	1722.34167	-1022.00574	827.88013	1691.76282	-1074.67493	830.96271	1734.97363	-1038.83459	753.64191	1734.45288	-987.67487	961.6297	1332.82031	-997.91278	951.65381	1550.69116	-1144.58008	997.73425	1357.6217	-1146.48035	984.01758	1524.48389	-1051.3573	656.84637	1265.96582	-1050.21667	493.19595	1290.64355	-1065.75073	236.61002	1308.67395	-1053.28613	68.00236	1361.81799	-1091.16028	54.16314	1409.83203	-910.98846	45.77926	1362.60498	-1039.66809	614.96301	1607.72192	-1016.52557	489.75595	1595.33923	-1208.85535	327.20465	1593.15845	-1360.21838	220.47995	1553.26611	-1402.90002	230.40634	1505.90088	-1296.27588	79.36942	1571.70789	-1053.81689	1696.30798	1427.85645	NaN	NaN	NaN	NaN	NaN	NaN	NaN	NaN	NaN	NaN	NaN	NaN
2	0.01	-951.83844	1652.95569	1359.854	-936.93237	1647.5498	1491.02112	-1085.66626	1603.59045	1376.43848	-1069.39307	1602.48804	1504.7207	-1086.54346	1451.75696	1431.57495	-1148.26428	1127.21289	1443.74597	-980.90002	1367.19897	1429.66602	-955.94312	1188.52539	1424.64343	-1169.06897	1289.07935	1516.28064	-1032.37219	1402.71228	1268.36255	-1045.33887	1199.98669	1195.8739	-1054.61353	1087.04993	1182.67639	-1021.04883	942.82629	1152.15955	-938.88611	837.47345	1175.45227	-1005.19421	824.38525	1153.15149	-953.46497	751.41711	1137.8667	-1016.66473	1402.60156	1590.80249	-1068.87634	1211.81995	1685.97534	-1071.20276	1089.8573	1701.40454	-1063.59363	969.95697	1720.94177	-1015.02954	828.38055	1690.71143	-1067.99292	831.71765	1733.48242	-1032.49866	753.96979	1732.97729	-979.48889	962.03613	1331.20178	-988.45404	952.38782	1549.03833	-1136.08545	998.33612	1357.32117	-1136.72363	985.10638	1524.29333	-1045.48315	657.0531	1265.69189	-1045.88037	493.34827	1290.37219	-1064.22607	237.08476	1308.9209	-1053.448	68.09342	1361.86035	-1091.38318	54.20012	1409.88989	-911.33032	45.8315	1362.35278	-1022.85339	616.70941	1606.59644	-996.5708	492.20886	1592.63037	-1185.76831	326.05338	1591.63293	-1335.03271	215.46486	1552.85339	-1378.89807	223.29338	1505.75171	-1263.11963	78.70361	1570.98901	-1043.50732	1697.14246	1427.81555	NaN	NaN	NaN	NaN	NaN	NaN	NaN	NaN	NaN	NaN	NaN	NaN
3	0.02	-941.52136	1653.61462	1359.72241	-926.68616	1647.82703	1490.95178	-1075.52686	1604.63818	1376.19287	-1059.20386	1603.15088	1504.4552	-1076.83838	1452.43164	1430.93018	-1138.94617	1128.13123	1443.16016	-971.37195	1367.77966	1428.97119	-946.59387	1189.16895	1423.62292	-1159.50256	1289.87354	1515.58435	-1022.57013	1403.57349	1267.82385	-1033.00659	1200.73926	1195.06665	-1040.51465	1087.75745	1181.65015	-1003.25952	944.32037	1151.19324	-918.67584	841.06952	1175.17078	-984.18488	826.2124	1152.33252	-930.55548	754.89587	1137.14014	-1007.12561	1403.26379	1590.17261	-1060.3916	1212.61121	1684.86987	-1063.5033	1090.73816	1700.14587	-1056.50647	970.78491	1720.02258	-1008.09186	828.77399	1689.55029	-1061.45068	832.41852	1731.97278	-1026.40051	754.38623	1731.56482	-971.43353	962.2951	1329.57544	-978.3584	953.36505	1547.70654	-1127.62915	998.89221	1357.0896	-1127.0415	986.19446	1524.10388	-1040.0238	657.30261	1265.38757	-1041.50659	493.43109	1290.1637	-1063.19763	237.40036	1308.79968	-1053.54333	68.23572	1361.95166	-1091.60828	54.25063	1409.73535	-911.59216	45.77427	1362.12292	-1006.07336	618.29663	1605.85181	-976.97998	494.9725	1590.3092	-1162.60754	324.56815	1590.06543	-1308.86841	209.63666	1551.98657	-1353.42712	214.83391	1504.96106	-1229.6908	77.95625	1570.62036	-1033.01514	1697.89966	1427.81409	NaN	NaN	NaN	NaN	NaN	NaN	NaN	NaN	NaN	NaN	NaN	NaN
4	0.03	-931.12671	1654.19958	1359.63574	-916.36658	1647.9834	1490.79224	-1065.30432	1605.66772	1375.94775	-1049.04297	1603.78259	1504.22632	-1067.18188	1453.11218	1430.3075	-1129.6781	1128.99536	1442.52124	-961.69293	1368.3949	1428.45874	-937.36517	1189.70459	1422.56226	-1150.06543	1290.5575	1514.93188	-1012.93219	1404.45776	1267.34656	-1020.63727	1201.52869	1194.35083	-1026.32922	1088.47876	1180.64819	-985.46497	945.97473	1150.40088	-898.40619	844.98083	1174.93457	-963.69519	828.60602	1151.56494	-907.76794	758.53064	1136.67505	-997.71173	1403.83655	1589.57642	-1051.86548	1213.33398	1683.96204	-1055.54138	1091.39282	1699.02209	-1049.85864	971.5434	1718.89807	-1001.25012	829.10522	1688.43005	-1054.84204	832.78809	1730.4967	-1020.46106	754.71808	1730.18469	-963.45862	962.38257	1327.95251	-967.88043	954.42401	1546.7135	-1119.14648	999.2782	1356.84277	-1117.41211	987.31866	1523.85291	-1033.15039	656.90112	1265.35535	-1036.98572	493.47495	1290.02173	-1061.3512	237.58305	1309.52197	-1053.45215	68.38422	1362.08569	-1091.56165	54.55334	1410.10413	-911.64703	45.72011	1362.13965	-989.95422	620.39948	1604.71069	-957.64703	498.1004	1587.91467	-1139.32166	322.83456	1588.28625	-1281.64319	202.92772	1550.61182	-1326.82068	205.91788	1503.75903	-1195.99011	76.44747	1570.16858	-1022.45221	1698.63733	1427.81946	NaN	NaN	NaN	NaN	NaN	NaN	NaN	NaN	NaN	NaN	NaN	NaN
5	0.04	-920.65198	1654.6864	1359.55408	-905.93152	1648.14075	1490.80115	-1055.02673	1606.65149	1375.71924	-1039.0166	1604.4104	1504.14673	-1057.52734	1453.73669	1429.75928	-1121.55432	1130.10535	1441.86646	-952.29016	1368.83081	1427.79382	-928.04688	1190.15649	1421.57922	-1140.61816	1291.17383	1514.18225	-1003.42798	1405.37622	1266.88062	-1007.77423	1202.33813	1193.32922	-1012.22369	1089.2804	1179.63672	-967.41986	947.59924	1149.75647	-878.39691	848.96405	1174.9104	-943.12396	830.87451	1150.97729	-885.37628	762.40167	1136.45715	-988.28503	1404.2428	1588.98401	-1045.66272	1214.40332	1682.6449	-1047.56091	1091.85632	1697.87463	-1042.66187	971.98724	1717.75708	-994.57635	829.28821	1687.35535	-1048.39502	833.28955	1729.12207	-1014.72986	754.92297	1728.68396	-955.19647	962.51587	1326.49121	-958.76727	954.98816	1545.16223	-1110.65332	999.71838	1356.59229	-1107.74585	988.40472	1523.59937	-1027.6875	657.16589	1264.86365	-1032.45068	493.47052	1289.94739	-1059.90356	237.88962	1309.43274	-1053.15344	68.47685	1362.33948	-1091.43323	54.67047	1410.40015	-911.6084	45.48508	1362.03235	-973.93201	622.66858	1603.38245	-938.63281	501.40756	1585.53027	-1115.76282	320.81467	1586.34216	-1253.66052	195.76344	1548.93457	-1298.79822	196.12366	1501.62024	-1161.65564	75.0204	1570.34436	-1011.86877	1699.30249	1427.85303	NaN	NaN	NaN	NaN	NaN	NaN	NaN	NaN	NaN	NaN	NaN	NaN
6	0.05	-909.69489	1655.15918	1359.57031	-895.62506	1648.10352	1490.74792	-1044.7356	1607.57263	1375.43188	-1028.62622	1604.922	1503.72656	-1047.80737	1454.27332	1429.26001	-1111.02673	1130.32471	1441.20313	-942.78986	1369.17249	1427.22327	-918.71753	1190.52332	1420.68262	-1131.23792	1291.72034	1513.34827	-993.68774	1406.09119	1266.46948	-995.48291	1203.1864	1192.54541	-997.96106	1090.03796	1178.55847	-949.99438	949.63635	1148.99817	-858.86456	852.81952	1175.35962	-922.65417	833.43512	1150.64343	-863.0614	766.43744	1136.5387	-978.80298	1404.48975	1588.45825	-1037.15479	1214.8053	1681.75085	-1039.41138	1092.22375	1696.90967	-1036.60193	972.67798	1716.49976	-987.7157	829.27472	1686.2749	-1041.87439	833.52496	1727.70935	-1008.83209	754.98303	1727.22351	-946.89569	962.50098	1325.08496	-948.52039	956.00922	1544.25378	-1102.05969	1000.04895	1356.34692	-1098.06409	989.40472	1523.3407	-1022.17731	657.39178	1264.36267	-1027.58044	493.45227	1290.03748	-1057.4386	238.05682	1310.07544	-1052.97522	68.70705	1362.59314	-1091.59644	54.85432	1410.55908	-911.50946	45.38496	1362.13403	-957.74835	625.21442	1601.92175	-919.88232	504.93976	1583.20874	-1091.91772	318.47876	1584.47009	-1225.05359	188.19896	1547.14392	-1270.0116	185.97511	1499.5824	-1126.80505	73.00813	1569.56775	-1001.14655	1699.90173	1427.83728	NaN	NaN	NaN	NaN	NaN	NaN	NaN	NaN	NaN	NaN	NaN	NaN
7	0.06	-899.05908	1655.42627	1359.59045	-885.11267	1648.06702	1490.77173	-1034.30627	1608.35156	1375.20886	-1018.39563	1605.42102	1503.49365	-1038.04089	1454.73877	1428.75098	-1101.67493	1130.83386	1440.47473	-933.1842	1369.48389	1426.78748	-909.47131	1190.78223	1419.7323	-1121.83289	1292.18103	1512.39355	-983.90509	1406.72974	1265.97888	-983.51276	1204.03821	1191.77429	-983.93195	1090.92188	1177.58948	-932.29529	951.55255	1148.43018	-839.22754	857.25439	1175.43115	-902.00421	835.86835	1150.56287	-840.84375	770.56067	1136.92871	-969.39337	1404.60461	1587.94714	-1026.66675	1214.48376	1681.24829	-1032.35742	1092.72839	1695.672	-1028.14929	972.49866	1715.55103	-981.4176	829.30817	1685.53735	-1035.40674	833.70001	1726.43188	-1002.82611	754.87561	1725.86157	-938.52698	962.3999	1323.71826	-938.40515	956.87006	1543.46082	-1093.30969	1000.32538	1356.11401	-1088.34399	990.27765	1523.12927	-1016.17603	657.43781	1264.87268	-1022.47302	493.34793	1290.21875	-1055.43787	238.31273	1310.07593	-1052.77014	68.82805	1362.86377	-1091.48706	55.00725	1410.76782	-911.45203	45.588	1362.02612	-941.60541	628.04419	1600.48926	-901.63745	508.59329	1580.94702	-1067.7489	315.87372	1582.54614	-1195.62585	180.27341	1545.25879	-1240.36621	175.50775	1497.48865	-1091.82349	71.05612	1569.23047	-990.42328	1700.3916	1427.80334	NaN	NaN	NaN	NaN	NaN	NaN	NaN	NaN	NaN	NaN	NaN	NaN
8	0.07	-888.41913	1655.58118	1359.54663	-874.45959	1647.75476	1490.66846	-1023.85004	1609.05127	1374.92224	-1008.14337	1605.77466	1503.24426	-1028.3053	1455.10559	1428.27478	-1092.30591	1131.26404	1439.71204	-923.64783	1369.62439	1426.26526	-900.1413	1190.95044	1418.82837	-1112.46082	1292.53723	1511.4021	-974.18304	1407.37915	1265.52869	-971.57635	1204.85303	1191.06226	-969.83655	1091.72961	1176.58838	-914.92932	953.58185	1147.96655	-819.77979	861.70789	1175.92554	-881.93225	838.84344	1150.43628	-818.95612	774.94598	1137.47107	-960.00549	1404.62073	1587.49463	-1018.24213	1214.60461	1680.36194	-1023.63391	1092.56323	1694.8407	-1021.02948	972.57849	1714.49048	-974.76544	829.21216	1684.57422	-1028.94641	833.79919	1725.16858	-997.01276	754.81311	1724.52942	-930.05139	962.15405	1322.43152	-929.47394	957.24463	1541.89966	-1084.46814	1000.4624	1355.7876	-1078.6731	991.04504	1522.85437	-1009.9024	657.34216	1264.53699	-1017.2804	493.22025	1290.39893	-1052.8562	238.48248	1310.79236	-1052.53442	68.98473	1363.05627	-1091.40588	55.17414	1410.94824	-911.36658	45.51945	1362.53418	-926.39886	630.56055	1599.20813	-883.92786	512.27258	1578.87634	-1043.85229	312.99536	1580.6167	-1165.30371	172.07431	1543.29419	-1209.82996	164.70615	1495.35535	-1056.20605	68.90668	1568.64893	-979.69141	1700.7959	1427.81042	NaN	NaN	NaN	NaN	NaN	NaN	NaN	NaN	NaN	NaN	NaN	NaN
